<?xml version="1.0" encoding="utf-8"?>
<!-- Svg Vector Icons : http://www.onlinewebfonts.com/icon -->
<!DOCTYPE svg PUBLIC "-//W3C//DTD SVG 1.1//EN" "http://www.w3.org/Graphics/SVG/1.1/DTD/svg11.dtd">
<svg version="1.1" xmlns="http://www.w3.org/2000/svg" xmlns:xlink="http://www.w3.org/1999/xlink" x="0px" y="0px" viewBox="0 0 256 256" enable-background="new 0 0 256 256" xml:space="preserve">
<metadata> Svg Vector Icons : http://www.onlinewebfonts.com/icon </metadata>
<g><g><path fill="#dc3300" d="M202.6,247.9l-153.2-0.2C27.3,245.6,10,227,10,204.4v-132C10,48.4,29.5,29,53.4,29h149.1c24,0,43.4,19.5,43.4,43.4v132C246,228.4,226.5,247.9,202.6,247.9L202.6,247.9z M53.4,46.7c-14.2,0-25.7,11.6-25.7,25.7v132c0,14.2,11.6,25.7,25.7,25.7h149.1c14.2,0,25.7-11.6,25.7-25.7v-132c0-14.2-11.5-25.7-25.7-25.7H53.4L53.4,46.7z M175.4,72.1c-6.5,0-11.8-5.3-11.8-11.8V19.9c0-6.5,5.3-11.8,11.8-11.8s11.8,5.3,11.8,11.8v40.4C187.2,66.8,181.9,72.1,175.4,72.1L175.4,72.1z M77.9,72.1c-6.5,0-11.8-5.3-11.8-11.8V19.9c0-6.5,5.3-11.8,11.8-11.8c6.5,0,11.8,5.3,11.8,11.8v40.4C89.7,66.8,84.5,72.1,77.9,72.1L77.9,72.1z M133.7,200.4h-11.2c-6.5,0-11.8-5.3-11.8-11.8c0-6.5,5.3-11.8,11.8-11.8h11.3c6.5,0,11.8,5.3,11.8,11.8C145.5,195.1,140.2,200.4,133.7,200.4L133.7,200.4z M234.4,107.5h-206c-6.5,0-11.8,0.5-11.8-6c0-6.5,5.3-11.8,11.8-11.8h206c6.5,0,6,5.3,6,11.8c0,6.5,0.5,11.8-6,11.8V107.5z M81.1,163.3H69.8c-6.5,0-11.8-5.3-11.8-11.8c0-6.5,5.3-11.8,11.8-11.8h11.3c6.5,0,11.8,5.3,11.8,11.8C92.9,158,87.6,163.3,81.1,163.3L81.1,163.3z M133.7,163.3h-11.2c-6.5,0-11.8-5.3-11.8-11.8c0-6.5,5.3-11.8,11.8-11.8h11.3c6.5,0,11.8,5.3,11.8,11.8C145.5,158,140.2,163.3,133.7,163.3L133.7,163.3z M186.2,163.3H175c-6.5,0-11.8-5.3-11.8-11.8c0-6.5,5.3-11.8,11.8-11.8h11.3c6.5,0,11.8,5.3,11.8,11.8C198,158,192.8,163.3,186.2,163.3L186.2,163.3z M81.1,200.4H69.8c-6.5,0-11.8-5.3-11.8-11.8c0-6.5,5.3-11.8,11.8-11.8h11.3c6.5,0,11.8,5.3,11.8,11.8C92.9,195.1,87.6,200.4,81.1,200.4L81.1,200.4z M186.2,200.4H175c-6.5,0-11.8-5.3-11.8-11.8c0-6.5,5.3-11.8,11.8-11.8h11.3c6.5,0,11.8,5.3,11.8,11.8C198,195.1,192.8,200.4,186.2,200.4L186.2,200.4z"/></g></g>
</svg>